<?xml version="1.0" encoding="UTF-8"?>
<svg xmlns="http://www.w3.org/2000/svg" width="1500" height="470" viewBox="0 0 1500 470" role="img" aria-label="Delivery: pull requests run checks and read-only plans; merging applies dev, then prod after approval."><title>Delivery: pull requests run checks and read-only plans; merging applies dev, then prod after approval.</title><defs><marker id="m7D8B9E" viewBox="0 0 10 10" refX="8.5" refY="5" markerWidth="7" markerHeight="7" orient="auto-start-reverse"><path d="M0,0 L10,5 L0,10 z" fill="#7D8B9E"/></marker><marker id="m4A90F5" viewBox="0 0 10 10" refX="8.5" refY="5" markerWidth="7" markerHeight="7" orient="auto-start-reverse"><path d="M0,0 L10,5 L0,10 z" fill="#4A90F5"/></marker></defs><rect width="1500" height="470" rx="16" fill="#0D1117"/><rect x="24" y="24" width="1452" height="200" rx="14" fill="#141A22" stroke="#7D8B9E" stroke-width="1.6"/>
<text x="48" y="62" font-family="-apple-system, BlinkMacSystemFont, 'Segoe UI', Helvetica, Arial, sans-serif" font-size="24" font-weight="700" fill="#D7DEE7" text-anchor="start">Pull request</text>
<text x="48" y="88" font-family="-apple-system, BlinkMacSystemFont, 'Segoe UI', Helvetica, Arial, sans-serif" font-size="15" font-weight="400" fill="#D7DEE7" text-anchor="start">Checks and read-only plans; ci is the only required status</text>
<rect x="48" y="110" width="244" height="64" rx="10" fill="#161B22" stroke="#30363D" stroke-width="1.2"/>
<rect x="60" y="122.0" width="40" height="40" rx="8.0" fill="#24292F"/><g transform="translate(68.0,130.0) scale(1.0)" fill="none" stroke="#FFFFFF" stroke-width="1.8" stroke-linecap="round" stroke-linejoin="round"><circle cx="12" cy="12" r="8.5"/><path d="M10 8.5l5.5 3.5-5.5 3.5z"/></g>
<text x="112" y="139.0" font-family="-apple-system, BlinkMacSystemFont, 'Segoe UI', Helvetica, Arial, sans-serif" font-size="15" font-weight="600" fill="#E6EDF3" text-anchor="start">Static checks</text>
<text x="112" y="158.0" font-family="-apple-system, BlinkMacSystemFont, 'Segoe UI', Helvetica, Arial, sans-serif" font-size="12.5" font-weight="400" fill="#9AA7B4" text-anchor="start">fmt, validate, tflint, Trivy</text>
<polyline points="295,142 322,142" fill="none" stroke="#7D8B9E" stroke-width="2" stroke-linecap="round" stroke-linejoin="round" marker-end="url(#m7D8B9E)"/>
<rect x="325" y="110" width="244" height="64" rx="10" fill="#161B22" stroke="#30363D" stroke-width="1.2"/>
<rect x="337" y="122.0" width="40" height="40" rx="8.0" fill="#5A6B86"/><g transform="translate(345.0,130.0) scale(1.0)" fill="none" stroke="#FFFFFF" stroke-width="1.8" stroke-linecap="round" stroke-linejoin="round"><circle cx="10.5" cy="10.5" r="6"/><path d="M15 15l5 5"/></g>
<text x="389" y="139.0" font-family="-apple-system, BlinkMacSystemFont, 'Segoe UI', Helvetica, Arial, sans-serif" font-size="15" font-weight="600" fill="#E6EDF3" text-anchor="start">Detect changes</text>
<text x="389" y="158.0" font-family="-apple-system, BlinkMacSystemFont, 'Segoe UI', Helvetica, Arial, sans-serif" font-size="12.5" font-weight="400" fill="#9AA7B4" text-anchor="start">skip plans for docs</text>
<polyline points="572,142 599,142" fill="none" stroke="#7D8B9E" stroke-width="2" stroke-linecap="round" stroke-linejoin="round" marker-end="url(#m7D8B9E)"/>
<rect x="602" y="110" width="244" height="64" rx="10" fill="#161B22" stroke="#30363D" stroke-width="1.2"/>
<rect x="614" y="122.0" width="40" height="40" rx="8.0" fill="#8C4FFF"/><g transform="translate(622.0,130.0) scale(1.0)" fill="none" stroke="#FFFFFF" stroke-width="1.8" stroke-linecap="round" stroke-linejoin="round"><path d="M5 4l6 3.5v7L5 11zM12.5 7.5l6-3.5v7l-6 3.5zM12.5 15.5l6-3.5v7l-6 3.5z"/></g>
<text x="666" y="139.0" font-family="-apple-system, BlinkMacSystemFont, 'Segoe UI', Helvetica, Arial, sans-serif" font-size="15" font-weight="600" fill="#E6EDF3" text-anchor="start">Plan (read-only)</text>
<text x="666" y="158.0" font-family="-apple-system, BlinkMacSystemFont, 'Segoe UI', Helvetica, Arial, sans-serif" font-size="12.5" font-weight="400" fill="#9AA7B4" text-anchor="start">*-plan role, in summary</text>
<polyline points="849,142 876,142" fill="none" stroke="#7D8B9E" stroke-width="2" stroke-linecap="round" stroke-linejoin="round" marker-end="url(#m7D8B9E)"/>
<rect x="879" y="110" width="244" height="64" rx="10" fill="#161B22" stroke="#30363D" stroke-width="1.2"/>
<rect x="891" y="122.0" width="40" height="40" rx="8.0" fill="#24292F"/><g transform="translate(899.0,130.0) scale(1.0)" fill="none" stroke="#FFFFFF" stroke-width="1.8" stroke-linecap="round" stroke-linejoin="round"><circle cx="12" cy="12" r="8.5"/><path d="M8 12.2l2.8 2.8L16.2 9.5"/></g>
<text x="943" y="139.0" font-family="-apple-system, BlinkMacSystemFont, 'Segoe UI', Helvetica, Arial, sans-serif" font-size="15" font-weight="600" fill="#E6EDF3" text-anchor="start">ci</text>
<text x="943" y="158.0" font-family="-apple-system, BlinkMacSystemFont, 'Segoe UI', Helvetica, Arial, sans-serif" font-size="12.5" font-weight="400" fill="#9AA7B4" text-anchor="start">required on main</text>
<polyline points="1126,142 1153,142" fill="none" stroke="#7D8B9E" stroke-width="2" stroke-linecap="round" stroke-linejoin="round" marker-end="url(#m7D8B9E)"/>
<rect x="1156" y="110" width="244" height="64" rx="10" fill="#161B22" stroke="#30363D" stroke-width="1.2"/>
<rect x="1168" y="122.0" width="40" height="40" rx="8.0" fill="#24292F"/><g transform="translate(1176.0,130.0) scale(1.0)" fill="none" stroke="#FFFFFF" stroke-width="1.8" stroke-linecap="round" stroke-linejoin="round"><circle cx="9" cy="8" r="3.2"/><path d="M3 19a6 6 0 0 1 11.5-2.5"/><path d="M14.5 17l2.2 2.2 4-4.4"/></g>
<text x="1220" y="139.0" font-family="-apple-system, BlinkMacSystemFont, 'Segoe UI', Helvetica, Arial, sans-serif" font-size="15" font-weight="600" fill="#E6EDF3" text-anchor="start">Review + merge</text>
<text x="1220" y="158.0" font-family="-apple-system, BlinkMacSystemFont, 'Segoe UI', Helvetica, Arial, sans-serif" font-size="12.5" font-weight="400" fill="#9AA7B4" text-anchor="start">squash into main</text>
<polyline points="750,224 750,248" fill="none" stroke="#7D8B9E" stroke-width="2" stroke-linecap="round" stroke-linejoin="round" marker-end="url(#m7D8B9E)"/>
<rect x="24" y="250" width="1452" height="196" rx="14" fill="#0E1D33" stroke="#4A90F5" stroke-width="1.6"/>
<text x="48" y="288" font-family="-apple-system, BlinkMacSystemFont, 'Segoe UI', Helvetica, Arial, sans-serif" font-size="24" font-weight="700" fill="#A9CBFF" text-anchor="start">Merge to main → deploy.yml</text>
<text x="48" y="314" font-family="-apple-system, BlinkMacSystemFont, 'Segoe UI', Helvetica, Arial, sans-serif" font-size="15" font-weight="400" fill="#A9CBFF" text-anchor="start">Applies in order; production waits for an approval and applies exactly the reviewed plan</text>
<rect x="48" y="336" width="244" height="64" rx="10" fill="#161B22" stroke="#30363D" stroke-width="1.2"/>
<rect x="60" y="348.0" width="40" height="40" rx="8.0" fill="#24292F"/><g transform="translate(68.0,356.0) scale(1.0)" fill="none" stroke="#FFFFFF" stroke-width="1.8" stroke-linecap="round" stroke-linejoin="round"><circle cx="12" cy="12" r="8.5"/><path d="M10 8.5l5.5 3.5-5.5 3.5z"/></g>
<text x="112" y="365.0" font-family="-apple-system, BlinkMacSystemFont, 'Segoe UI', Helvetica, Arial, sans-serif" font-size="15" font-weight="600" fill="#E6EDF3" text-anchor="start">Apply shared</text>
<text x="112" y="384.0" font-family="-apple-system, BlinkMacSystemFont, 'Segoe UI', Helvetica, Arial, sans-serif" font-size="12.5" font-weight="400" fill="#9AA7B4" text-anchor="start">platform-infra only</text>
<polyline points="295,368 322,368" fill="none" stroke="#4A90F5" stroke-width="2" stroke-linecap="round" stroke-linejoin="round" marker-end="url(#m4A90F5)"/>
<rect x="325" y="336" width="244" height="64" rx="10" fill="#161B22" stroke="#30363D" stroke-width="1.2"/>
<rect x="337" y="348.0" width="40" height="40" rx="8.0" fill="#24292F"/><g transform="translate(345.0,356.0) scale(1.0)" fill="none" stroke="#FFFFFF" stroke-width="1.8" stroke-linecap="round" stroke-linejoin="round"><circle cx="12" cy="12" r="8.5"/><path d="M10 8.5l5.5 3.5-5.5 3.5z"/></g>
<text x="389" y="365.0" font-family="-apple-system, BlinkMacSystemFont, 'Segoe UI', Helvetica, Arial, sans-serif" font-size="15" font-weight="600" fill="#E6EDF3" text-anchor="start">Apply dev</text>
<text x="389" y="384.0" font-family="-apple-system, BlinkMacSystemFont, 'Segoe UI', Helvetica, Arial, sans-serif" font-size="12.5" font-weight="400" fill="#9AA7B4" text-anchor="start">waits for healthy rollout</text>
<polyline points="572,368 599,368" fill="none" stroke="#4A90F5" stroke-width="2" stroke-linecap="round" stroke-linejoin="round" marker-end="url(#m4A90F5)"/>
<rect x="602" y="336" width="244" height="64" rx="10" fill="#161B22" stroke="#30363D" stroke-width="1.2"/>
<rect x="614" y="348.0" width="40" height="40" rx="8.0" fill="#8C4FFF"/><g transform="translate(622.0,356.0) scale(1.0)" fill="none" stroke="#FFFFFF" stroke-width="1.8" stroke-linecap="round" stroke-linejoin="round"><path d="M6 3h8l4 4v14H6z"/><path d="M14 3v4h4"/><path d="M9.5 12.5L8 14l1.5 1.5M14.5 12.5L16 14l-1.5 1.5"/></g>
<text x="666" y="365.0" font-family="-apple-system, BlinkMacSystemFont, 'Segoe UI', Helvetica, Arial, sans-serif" font-size="15" font-weight="600" fill="#E6EDF3" text-anchor="start">Plan prod</text>
<text x="666" y="384.0" font-family="-apple-system, BlinkMacSystemFont, 'Segoe UI', Helvetica, Arial, sans-serif" font-size="12.5" font-weight="400" fill="#9AA7B4" text-anchor="start">saved to private bucket</text>
<polyline points="849,368 876,368" fill="none" stroke="#4A90F5" stroke-width="2" stroke-linecap="round" stroke-linejoin="round" marker-end="url(#m4A90F5)"/>
<rect x="879" y="336" width="244" height="64" rx="10" fill="#161B22" stroke="#30363D" stroke-width="1.2"/>
<rect x="891" y="348.0" width="40" height="40" rx="8.0" fill="#24292F"/><g transform="translate(899.0,356.0) scale(1.0)" fill="none" stroke="#FFFFFF" stroke-width="1.8" stroke-linecap="round" stroke-linejoin="round"><circle cx="9" cy="8" r="3.2"/><path d="M3 19a6 6 0 0 1 11.5-2.5"/><path d="M14.5 17l2.2 2.2 4-4.4"/></g>
<text x="943" y="365.0" font-family="-apple-system, BlinkMacSystemFont, 'Segoe UI', Helvetica, Arial, sans-serif" font-size="15" font-weight="600" fill="#E6EDF3" text-anchor="start">Approval</text>
<text x="943" y="384.0" font-family="-apple-system, BlinkMacSystemFont, 'Segoe UI', Helvetica, Arial, sans-serif" font-size="12.5" font-weight="400" fill="#9AA7B4" text-anchor="start">required reviewer</text>
<polyline points="1126,368 1153,368" fill="none" stroke="#4A90F5" stroke-width="2" stroke-linecap="round" stroke-linejoin="round" marker-end="url(#m4A90F5)"/>
<rect x="1156" y="336" width="244" height="64" rx="10" fill="#161B22" stroke="#30363D" stroke-width="1.2"/>
<rect x="1168" y="348.0" width="40" height="40" rx="8.0" fill="#24292F"/><g transform="translate(1176.0,356.0) scale(1.0)" fill="none" stroke="#FFFFFF" stroke-width="1.8" stroke-linecap="round" stroke-linejoin="round"><circle cx="12" cy="12" r="8.5"/><path d="M8 12.2l2.8 2.8L16.2 9.5"/></g>
<text x="1220" y="365.0" font-family="-apple-system, BlinkMacSystemFont, 'Segoe UI', Helvetica, Arial, sans-serif" font-size="15" font-weight="600" fill="#E6EDF3" text-anchor="start">Apply prod</text>
<text x="1220" y="384.0" font-family="-apple-system, BlinkMacSystemFont, 'Segoe UI', Helvetica, Arial, sans-serif" font-size="12.5" font-weight="400" fill="#9AA7B4" text-anchor="start">exact plan + rollout check</text>
<text x="1452" y="430" font-family="-apple-system, BlinkMacSystemFont, 'Segoe UI', Helvetica, Arial, sans-serif" font-size="12.5" font-weight="400" fill="#9AA7B4" text-anchor="end">Prod steps run only when PRODUCTION_ENABLED = true</text></svg>
